# xmcd
#
# Track frame offsets:
# 150
# 8934
# 28488
# 45295
# 58849
# 71838
# 90743
# 110334
# 121948
# 140256
# 151575
# 164101
# 174558
# 195044
# 206280
#
# Disc length: 2970 seconds
#
#
# Revision: 0
# Processed by: cddbd v1.5.1PL0 Copyright (c) Steve Scherf et al.
# Submitted via: FreeRIP 2.52 
#
DISCID=c40b980f
DTITLE=America's Bluegrass Band - America's Favorite Hymns
DYEAR=2005
DGENRE=Gospel
TTITLE0=Shoutin' On the Hills
TTITLE1=Me and Jesus
TTITLE2=Precious Memories
TTITLE3=Rank Strangers
TTITLE4=Little White Church
TTITLE5=I'm Workin' on a Building
TTITLE6=Zion's Hill
TTITLE7=He Showed Me the Way
TTITLE8=Vision of Mother
TTITLE9=Mother I'm Sorry
TTITLE10=Cabin on the Hill
TTITLE11=Sinner In Sin Too Long
TTITLE12=Who Will Sing For Me
TTITLE13=Cryin' Holy
TTITLE14=Beulah Land
EXTD=On Ol' Blue Records, Ashland Ky, USA
EXTT0=
EXTT1=
EXTT2=
EXTT3=
EXTT4=
EXTT5=
EXTT6=
EXTT7=
EXTT8=
EXTT9=
EXTT10=
EXTT11=
EXTT12=
EXTT13=
EXTT14=
PLAYORDER=
